<svg width="98" height="44" viewBox="0 0 98 44" fill="none" xmlns="http://www.w3.org/2000/svg">
<path d="M50.1631 2.46449L54.836 13.9471C55.0551 14.4855 55.5656 14.8488 56.146 14.8796L68.9619 15.5588C69.4243 15.5833 69.6078 16.1691 69.242 16.4531L59.37 24.1171C58.8893 24.4903 58.6817 25.1169 58.8445 25.7033L62.1155 37.4814C62.237 37.919 61.7591 38.2789 61.372 38.0412L50.485 31.3553C50.0034 31.0596 49.3966 31.0596 48.915 31.3553L38.028 38.0412C37.6409 38.2789 37.163 37.919 37.2846 37.4814L40.5555 25.7033C40.7183 25.1169 40.5107 24.4903 40.03 24.1171L30.158 16.4531C29.7922 16.1691 29.9757 15.5833 30.4381 15.5588L43.254 14.8796C43.8344 14.8488 44.3449 14.4855 44.564 13.9471L49.2369 2.46449C49.4059 2.04911 49.9941 2.04911 50.1631 2.46449Z" fill="#E8D954" stroke="#060606"/>
<path d="M81.6673 12.4117L84.7482 20.5081C84.9587 21.0611 85.4745 21.4387 86.0653 21.4722L94.6113 21.9566C95.0647 21.9823 95.2518 22.5504 94.9024 22.8405L88.2398 28.3721C87.7924 28.7436 87.6 29.3402 87.7462 29.9031L89.9386 38.346C90.0536 38.7888 89.5626 39.1407 89.1801 38.8895L82.0234 34.1893C81.5236 33.861 80.8764 33.861 80.3766 34.1893L73.2198 38.8895C72.8374 39.1407 72.3464 38.7888 72.4614 38.346L74.6538 29.9032C74.8 29.3402 74.6076 28.7436 74.1602 28.3721L67.4976 22.8405C67.1482 22.5504 67.3353 21.9823 67.7887 21.9566L76.3347 21.4722C76.9255 21.4387 77.4413 21.0611 77.6518 20.5081L80.7327 12.4117C80.8961 11.9821 81.5038 11.9821 81.6673 12.4117Z" fill="#E8D954" stroke="#060606"/>
<path d="M17.2673 12.4117L20.3482 20.5081C20.5587 21.0611 21.0745 21.4387 21.6653 21.4722L30.2113 21.9566C30.6647 21.9823 30.8518 22.5504 30.5024 22.8405L23.8398 28.3721C23.3924 28.7436 23.2 29.3402 23.3462 29.9031L25.5386 38.346C25.6536 38.7888 25.1626 39.1407 24.7802 38.8895L17.6234 34.1893C17.1236 33.861 16.4764 33.861 15.9766 34.1893L8.81984 38.8895C8.4374 39.1407 7.94641 38.7888 8.06142 38.346L10.2538 29.9032C10.4 29.3402 10.2076 28.7436 9.76016 28.3721L3.0976 22.8405C2.74818 22.5504 2.93527 21.9823 3.3887 21.9566L11.9347 21.4722C12.5255 21.4387 13.0413 21.0611 13.2518 20.5081L16.3327 12.4117C16.4962 11.9821 17.1038 11.9821 17.2673 12.4117Z" fill="#E8D954" stroke="#060606"/>
</svg>
